<svg width="24" height="25" viewBox="0 0 24 25" fill="none" xmlns="http://www.w3.org/2000/svg">
<path d="M15.125 21.6L6.70005 13.2C6.60005 13.1 6.52938 12.9917 6.48805 12.875C6.44605 12.7584 6.42505 12.6334 6.42505 12.5C6.42505 12.3667 6.44605 12.2417 6.48805 12.125C6.52938 12.0084 6.60005 11.9 6.70005 11.8L15.125 3.37502C15.3584 3.14169 15.65 3.02502 16 3.02502C16.35 3.02502 16.65 3.15002 16.9 3.40002C17.15 3.65002 17.275 3.94169 17.275 4.27502C17.275 4.60836 17.15 4.90002 16.9 5.15002L9.55005 12.5L16.9 19.85C17.1334 20.0834 17.25 20.3707 17.25 20.712C17.25 21.054 17.125 21.35 16.875 21.6C16.625 21.85 16.3334 21.975 16 21.975C15.6667 21.975 15.375 21.85 15.125 21.6Z" fill="#090937"/>
</svg>
