<svg width="16" height="16" viewBox="0 0 16 16" fill="none" xmlns="http://www.w3.org/2000/svg">
<g clip-path="url(#clip0_3_608)">
<path d="M8.00016 3.21891V1.62524M8.00016 3.21891C7.12 3.21891 6.40649 3.93242 6.40649 4.81258C6.40649 5.69274 7.12 6.40625 8.00016 6.40625M8.00016 3.21891C8.88032 3.21891 9.59383 3.93242 9.59383 4.81258C9.59383 5.69274 8.88032 6.40625 8.00016 6.40625M3.21916 12.7809C4.09932 12.7809 4.81283 12.0674 4.81283 11.1873C4.81283 10.3071 4.09932 9.59359 3.21916 9.59359M3.21916 12.7809C2.339 12.7809 1.62549 12.0674 1.62549 11.1873C1.62549 10.3071 2.339 9.59359 3.21916 9.59359M3.21916 12.7809V14.3746M3.21916 9.59359V1.62524M8.00016 6.40625V14.3746M12.7812 12.7809C13.6613 12.7809 14.3748 12.0674 14.3748 11.1873C14.3748 10.3071 13.6613 9.59359 12.7812 9.59359M12.7812 12.7809C11.901 12.7809 11.1875 12.0674 11.1875 11.1873C11.1875 10.3071 11.901 9.59359 12.7812 9.59359M12.7812 12.7809V14.3746M12.7812 9.59359V1.62524" stroke="#090937" stroke-opacity="0.4" stroke-width="1.5" stroke-linecap="round" stroke-linejoin="round"/>
</g>
<defs>
<clipPath id="clip0_3_608">
<rect width="16" height="16" fill="white"/>
</clipPath>
</defs>
</svg>
