<svg width="22" height="20" viewBox="0 0 22 20" fill="none" xmlns="http://www.w3.org/2000/svg">
<path d="M18.8143 3.2714L18.8149 3.27199C19.3181 3.7607 19.7202 4.34185 19.9991 4.98279C20.288 5.64969 20.4349 6.35528 20.4328 7.08214V7.08428C20.4328 7.76517 20.2928 8.49119 20.0014 9.24779L20.0008 9.2495C19.7594 9.88088 19.402 10.551 18.9363 11.2413C18.1994 12.332 17.1724 13.4893 15.8751 14.6786C13.7187 16.6539 11.5834 18.0187 11.5057 18.0681L11.5055 18.0682L10.9449 18.4253C10.9448 18.4253 10.9448 18.4253 10.9448 18.4254C10.9435 18.4261 10.941 18.4272 10.9371 18.4272C10.9332 18.4272 10.9307 18.4261 10.9295 18.4254C10.9294 18.4253 10.9294 18.4253 10.9294 18.4253L10.3687 18.0682L10.3687 18.0681L10.3569 18.0608C10.3572 18.0611 10.357 18.0609 10.3562 18.0604C10.3537 18.0588 10.345 18.0534 10.3287 18.043C10.3092 18.0305 10.2819 18.0128 10.2472 17.9902C10.1778 17.9449 10.0799 17.8802 9.95738 17.7974C9.71237 17.6318 9.37002 17.3944 8.96239 17.0964C8.14599 16.4996 7.07371 15.664 5.99916 14.6786L5.99908 14.6786C4.70167 13.4892 3.67457 12.3318 2.9377 11.2409C2.47301 10.552 2.11717 9.88129 1.87266 9.24742C1.58136 8.49094 1.44141 7.76506 1.44141 7.08428C1.44141 6.35585 1.5886 5.64946 1.87765 4.98248C2.15551 4.34148 2.55748 3.7605 3.06104 3.27262L3.06207 3.27163C3.5698 2.77783 4.16035 2.3903 4.81679 2.12043L4.8176 2.12009C5.49649 1.84007 6.21517 1.69862 6.96051 1.69862C7.99377 1.69862 9.00016 1.97953 9.87369 2.50869L9.87371 2.5087C10.0827 2.63529 10.2807 2.77397 10.4678 2.92473L10.9383 3.30365L11.4087 2.92473C11.5959 2.77397 11.7939 2.63529 12.0029 2.5087L12.0029 2.50869C12.8764 1.97953 13.8828 1.69862 14.9161 1.69863L14.9178 1.69862C15.6527 1.69694 16.3806 1.84025 17.059 2.12009L17.0599 2.12049C17.7139 2.38916 18.3094 2.77996 18.8143 3.2714ZM11.6144 1.8674L11.6145 1.8676L11.6144 1.8674Z" stroke="#6251DD" stroke-width="1.5"/>
</svg>
