<svg width="97" height="33" viewBox="0 0 97 33" fill="none" xmlns="http://www.w3.org/2000/svg">
<path fill-rule="evenodd" clip-rule="evenodd" d="M63.0835 20.7424C60.0693 20.7424 57.9237 20.495 56.6465 20.0003C55.3693 19.4866 54.5519 18.5828 54.1943 17.2889C53.8623 15.995 53.6962 13.7974 53.6962 10.6959C53.6962 7.59439 53.8623 5.39671 54.1943 4.10284C54.5519 2.80897 55.3693 1.91468 56.6465 1.41997C57.9237 0.906224 60.0693 0.649353 63.0835 0.649353C66.0976 0.649353 68.2305 0.906224 69.4822 1.41997C70.7593 1.91468 71.564 2.80897 71.896 4.10284C72.2536 5.39671 72.4324 7.59439 72.4324 10.6959C72.4324 13.7974 72.2536 15.995 71.896 17.2889C71.564 18.5828 70.7593 19.4866 69.4822 20.0003C68.2305 20.495 66.0976 20.7424 63.0835 20.7424ZM63.0835 18.716C65.2291 18.716 66.6851 18.5828 67.4514 18.3164C68.2177 18.05 68.7286 17.4031 68.984 16.3756C69.2395 15.3481 69.3672 13.4549 69.3672 10.6959C69.3672 7.93688 69.2395 6.04365 68.984 5.01616C68.7286 3.98868 68.2177 3.34174 67.4514 3.07536C66.6851 2.80897 65.2291 2.67578 63.0835 2.67578C60.9378 2.67578 59.4691 2.80897 58.6772 3.07536C57.9109 3.34174 57.4 3.98868 57.1446 5.01616C56.8892 6.04365 56.7615 7.93688 56.7615 10.6959C56.7615 13.4549 56.8892 15.3481 57.1446 16.3756C57.4 17.4031 57.9109 18.05 58.6772 18.3164C59.4691 18.5828 60.9378 18.716 63.0835 18.716Z" fill="white"/>
<path d="M7.66467 1.82547C7.66467 1.30202 8.09362 0.877683 8.62275 0.877683H13.7561C15.7485 0.877683 17.2428 1.13455 18.239 1.6483C19.2351 2.16204 19.8865 2.85654 20.193 3.73181C20.4996 4.58804 20.6528 5.70115 20.6528 7.07113C20.6528 8.42208 20.4996 9.52568 20.193 10.3819C19.8865 11.2382 19.2224 11.9327 18.2006 12.4654C17.2044 12.9982 15.7101 13.2646 13.7177 13.2646H8.04726C7.51813 13.2646 7.08918 13.6889 7.08918 14.2124V19.5663C7.08918 20.0897 6.66023 20.5141 6.1311 20.5141H4.98203C4.4529 20.5141 4.02395 20.0897 4.02395 19.5663V12.2123C4.02395 11.6889 4.4529 11.2645 4.98203 11.2645H7.08809L7.08918 11.2656L7.09027 11.2667H12.9131C14.318 11.2667 15.3525 11.124 16.0167 10.8386C16.6808 10.5532 17.1023 10.125 17.2811 9.55422C17.4854 8.98339 17.5876 8.1557 17.5876 7.07113C17.5876 5.96754 17.4982 5.13984 17.3194 4.58804C17.1406 4.03625 16.7191 3.61764 16.055 3.33223C15.3908 3.04682 14.3563 2.90411 12.9514 2.90411H10.9316C10.24 2.90411 9.32518 2.92403 8.62275 2.92403C8.09362 2.92403 7.66467 2.4997 7.66467 1.97625V1.82547Z" fill="white"/>
<path d="M26.6476 20.5141C26.1184 20.5141 25.6895 20.0897 25.6895 19.5663V1.82547C25.6895 1.30202 26.1184 0.877683 26.6476 0.877683H27.7966C28.3258 0.877683 28.7547 1.30202 28.7547 1.82547V19.5663C28.7547 20.0897 28.3258 20.5141 27.7966 20.5141H26.6476Z" fill="white"/>
<path d="M39.1727 2.96119C39.7018 2.96119 40.1308 3.38553 40.1308 3.90898V19.5663C40.1308 20.0897 40.5597 20.5141 41.0889 20.5141H42.2379C42.7671 20.5141 43.196 20.0897 43.196 19.5663V3.90898C43.196 3.38553 43.625 2.96119 44.1541 2.96119H49.3646C49.8937 2.96119 50.3227 2.53686 50.3227 2.01341V1.82547C50.3227 1.30202 49.8937 0.877683 49.3646 0.877683H33.9622C33.4331 0.877683 33.0041 1.30202 33.0041 1.82547V2.01341C33.0041 2.53686 33.4331 2.96119 33.9622 2.96119H39.1727Z" fill="white"/>
<path d="M81.3128 5.44428C81.3448 5.44428 81.3749 5.45901 81.3943 5.48412L92.7238 20.142C92.905 20.3765 93.1864 20.5141 93.4849 20.5141H95.0419C95.571 20.5141 96 20.0897 96 19.5663V1.82547C96 1.30202 95.571 0.877683 95.0419 0.877683H93.9695C93.4403 0.877683 93.0114 1.30202 93.0114 1.82547V15.5605C93.0114 15.6166 92.9654 15.662 92.9088 15.662C92.8768 15.662 92.8467 15.6473 92.8273 15.6223L81.6894 1.24885C81.5081 1.01487 81.2271 0.877683 80.9291 0.877683H79.218C78.6889 0.877683 78.26 1.30202 78.26 1.82547V19.5663C78.26 20.0897 78.6889 20.5141 79.218 20.5141H80.2522C80.7813 20.5141 81.2103 20.0897 81.2103 19.5663V5.54575C81.2103 5.48971 81.2562 5.44428 81.3128 5.44428Z" fill="white"/>
<path d="M3.83233 1.78669C3.83233 1.26325 4.25958 0.83891 4.78661 0.83891H5.94393C6.47096 0.83891 6.8982 1.26325 6.8982 1.78669V1.97625C6.8982 2.4997 6.47096 2.92404 5.94393 2.92404H4.78661C4.25958 2.92404 3.83233 2.4997 3.83233 1.97625V1.78669Z" fill="white"/>
<path d="M0 1.78669C0 1.26325 0.427243 0.83891 0.954274 0.83891H2.11159C2.63862 0.83891 3.06587 1.26325 3.06587 1.78669V1.97625C3.06587 2.4997 2.63862 2.92404 2.11159 2.92404H0.954274C0.427243 2.92404 0 2.4997 0 1.97625V1.78669Z" fill="white"/>
<mask id="path-2-outside-1_6_1327" maskUnits="userSpaceOnUse" x="2.75" y="24.9518" width="94" height="8" fill="black">
<rect fill="white" x="2.75" y="24.9518" width="94" height="8"/>
<path d="M5.97552 32.5734V26.3514H3.75V26.0279H8.60162V26.3514H6.37611V32.5734H5.97552Z"/>
<path d="M13.5886 32.5734V26.0279H17.7058V26.3514H13.9892V29.1008H17.2495V29.4243H13.9892V32.2499H17.7058V32.5734H13.5886Z"/>
<path d="M26.481 32.5543C26.0507 32.6177 25.5611 32.6495 25.0122 32.6495C24.2258 32.6495 23.662 32.5765 23.3208 32.4306C22.9795 32.2848 22.7458 31.9867 22.6197 31.5364C22.4936 31.0797 22.4306 30.3344 22.4306 29.3006C22.4306 28.2795 22.4936 27.5437 22.6197 27.0934C22.7458 26.6368 22.9795 26.3323 23.3208 26.1801C23.6694 26.0279 24.2332 25.9518 25.0122 25.9518C25.2495 25.9518 25.5018 25.9645 25.7688 25.9898C26.0433 26.0089 26.2659 26.0342 26.4365 26.0659V26.3704C26.0285 26.307 25.5834 26.2752 25.1012 26.2752C24.3668 26.2752 23.8512 26.3387 23.5544 26.4655C23.2651 26.586 23.0722 26.8461 22.9758 27.2457C22.8794 27.6389 22.8311 28.3239 22.8311 29.3006C22.8311 30.2774 22.8794 30.9655 22.9758 31.3651C23.0722 31.7583 23.2651 32.0184 23.5544 32.1452C23.8512 32.2657 24.3668 32.326 25.1012 32.326C25.5982 32.326 26.0581 32.2943 26.481 32.2309V32.5543Z"/>
<path d="M36.008 32.5734V29.4243H31.9019V32.5734H31.5014V26.0279H31.9019V29.1008H36.008V26.0279H36.4086V32.5734H36.008Z"/>
<path d="M46.4201 32.5734L42.3696 26.7414H42.3251V32.5734H41.9356V26.0279H42.3474L46.4089 31.8598H46.4534V26.0279H46.8429V32.5734H46.4201Z"/>
<path d="M54.9533 32.6495C54.1002 32.6495 53.4993 32.5765 53.1506 32.4306C52.802 32.2784 52.5757 31.9867 52.4718 31.5554C52.368 31.1177 52.3161 30.3662 52.3161 29.3006C52.3161 28.2351 52.368 27.4867 52.4718 27.0554C52.5757 26.6177 52.802 26.326 53.1506 26.1801C53.4993 26.0279 54.1002 25.9518 54.9533 25.9518C55.8064 25.9518 56.4073 26.0279 56.756 26.1801C57.1046 26.326 57.3309 26.6177 57.4347 27.0554C57.5386 27.4867 57.5905 28.2351 57.5905 29.3006C57.5905 30.3662 57.5386 31.1177 57.4347 31.5554C57.3309 31.9867 57.1046 32.2784 56.756 32.4306C56.4073 32.5765 55.8064 32.6495 54.9533 32.6495ZM54.9533 32.326C55.7026 32.326 56.2144 32.2753 56.4889 32.1738C56.7708 32.0723 56.9563 31.8249 57.0453 31.4317C57.1417 31.0385 57.1899 30.3281 57.1899 29.3006C57.1899 28.2731 57.1417 27.5628 57.0453 27.1695C56.9563 26.7763 56.7708 26.5289 56.4889 26.4275C56.2144 26.326 55.7026 26.2752 54.9533 26.2752C54.2115 26.2752 53.6996 26.326 53.4177 26.4275C53.1358 26.5289 52.9466 26.7763 52.8502 27.1695C52.7612 27.5628 52.7166 28.2731 52.7166 29.3006C52.7166 30.3281 52.7612 31.0385 52.8502 31.4317C52.9466 31.8249 53.1358 32.0723 53.4177 32.1738C53.6996 32.2753 54.2115 32.326 54.9533 32.326Z"/>
<path d="M63.0774 32.5734V26.0279H63.478V32.2499H66.8052V32.5734H63.0774Z"/>
<path d="M73.9155 32.6495C73.0624 32.6495 72.4615 32.5765 72.1128 32.4306C71.7642 32.2784 71.5379 31.9867 71.4341 31.5554C71.3302 31.1177 71.2783 30.3662 71.2783 29.3006C71.2783 28.2351 71.3302 27.4867 71.4341 27.0554C71.5379 26.6177 71.7642 26.326 72.1128 26.1801C72.4615 26.0279 73.0624 25.9518 73.9155 25.9518C74.7686 25.9518 75.3695 26.0279 75.7182 26.1801C76.0668 26.326 76.2931 26.6177 76.397 27.0554C76.5008 27.4867 76.5527 28.2351 76.5527 29.3006C76.5527 30.3662 76.5008 31.1177 76.397 31.5554C76.2931 31.9867 76.0668 32.2784 75.7182 32.4306C75.3695 32.5765 74.7686 32.6495 73.9155 32.6495ZM73.9155 32.326C74.6648 32.326 75.1766 32.2753 75.4511 32.1738C75.733 32.0723 75.9185 31.8249 76.0075 31.4317C76.1039 31.0385 76.1522 30.3281 76.1522 29.3006C76.1522 28.2731 76.1039 27.5628 76.0075 27.1695C75.9185 26.7763 75.733 26.5289 75.4511 26.4275C75.1766 26.326 74.6648 26.2752 73.9155 26.2752C73.1737 26.2752 72.6618 26.326 72.3799 26.4275C72.098 26.5289 71.9088 26.7763 71.8124 27.1695C71.7234 27.5628 71.6789 28.2731 71.6789 29.3006C71.6789 30.3281 71.7234 31.0385 71.8124 31.4317C71.9088 31.8249 72.098 32.0723 72.3799 32.1738C72.6618 32.2753 73.1737 32.326 73.9155 32.326Z"/>
<path d="M84.141 29.5765V29.2531H86.3665V32.4877C86.0549 32.5385 85.71 32.5765 85.3316 32.6019C84.9533 32.6336 84.6195 32.6495 84.3301 32.6495C83.529 32.6495 82.9429 32.5734 82.572 32.4211C82.2085 32.2689 81.9563 31.9645 81.8153 31.5078C81.6744 31.0448 81.6039 30.3091 81.6039 29.3006C81.6039 28.2985 81.6744 27.5691 81.8153 27.1125C81.9563 26.6495 82.2085 26.3418 82.572 26.1896C82.9429 26.0311 83.529 25.9518 84.3301 25.9518C84.6491 25.9518 84.9978 25.9676 85.3761 25.9994C85.7619 26.0311 86.0846 26.0723 86.3442 26.123V26.4275C86.0549 26.3831 85.7471 26.3482 85.4207 26.3228C85.0942 26.2911 84.8272 26.2752 84.6195 26.2752C83.8034 26.2752 83.2322 26.326 82.9058 26.4275C82.5794 26.5289 82.3457 26.7858 82.2048 27.1981C82.0712 27.604 82.0045 28.3048 82.0045 29.3006C82.0045 30.2266 82.0527 30.8926 82.1491 31.2985C82.253 31.6981 82.4607 31.9708 82.7723 32.1167C83.0839 32.2562 83.5994 32.326 84.319 32.326C84.549 32.326 84.8272 32.3165 85.1536 32.2975C85.48 32.2721 85.7508 32.2435 85.9659 32.2118V29.5765H84.141Z"/>
<path d="M93.0957 32.5734V29.9L90.592 26.0279H91.0482L93.2626 29.4909H93.3405L95.566 26.0279H96L93.4963 29.9V32.5734H93.0957Z"/>
</mask>
<path d="M5.97552 32.5734V26.3514H3.75V26.0279H8.60162V26.3514H6.37611V32.5734H5.97552Z" fill="white"/>
<path d="M13.5886 32.5734V26.0279H17.7058V26.3514H13.9892V29.1008H17.2495V29.4243H13.9892V32.2499H17.7058V32.5734H13.5886Z" fill="white"/>
<path d="M26.481 32.5543C26.0507 32.6177 25.5611 32.6495 25.0122 32.6495C24.2258 32.6495 23.662 32.5765 23.3208 32.4306C22.9795 32.2848 22.7458 31.9867 22.6197 31.5364C22.4936 31.0797 22.4306 30.3344 22.4306 29.3006C22.4306 28.2795 22.4936 27.5437 22.6197 27.0934C22.7458 26.6368 22.9795 26.3323 23.3208 26.1801C23.6694 26.0279 24.2332 25.9518 25.0122 25.9518C25.2495 25.9518 25.5018 25.9645 25.7688 25.9898C26.0433 26.0089 26.2659 26.0342 26.4365 26.0659V26.3704C26.0285 26.307 25.5834 26.2752 25.1012 26.2752C24.3668 26.2752 23.8512 26.3387 23.5544 26.4655C23.2651 26.586 23.0722 26.8461 22.9758 27.2457C22.8794 27.6389 22.8311 28.3239 22.8311 29.3006C22.8311 30.2774 22.8794 30.9655 22.9758 31.3651C23.0722 31.7583 23.2651 32.0184 23.5544 32.1452C23.8512 32.2657 24.3668 32.326 25.1012 32.326C25.5982 32.326 26.0581 32.2943 26.481 32.2309V32.5543Z" fill="white"/>
<path d="M36.008 32.5734V29.4243H31.9019V32.5734H31.5014V26.0279H31.9019V29.1008H36.008V26.0279H36.4086V32.5734H36.008Z" fill="white"/>
<path d="M46.4201 32.5734L42.3696 26.7414H42.3251V32.5734H41.9356V26.0279H42.3474L46.4089 31.8598H46.4534V26.0279H46.8429V32.5734H46.4201Z" fill="white"/>
<path d="M54.9533 32.6495C54.1002 32.6495 53.4993 32.5765 53.1506 32.4306C52.802 32.2784 52.5757 31.9867 52.4718 31.5554C52.368 31.1177 52.3161 30.3662 52.3161 29.3006C52.3161 28.2351 52.368 27.4867 52.4718 27.0554C52.5757 26.6177 52.802 26.326 53.1506 26.1801C53.4993 26.0279 54.1002 25.9518 54.9533 25.9518C55.8064 25.9518 56.4073 26.0279 56.756 26.1801C57.1046 26.326 57.3309 26.6177 57.4347 27.0554C57.5386 27.4867 57.5905 28.2351 57.5905 29.3006C57.5905 30.3662 57.5386 31.1177 57.4347 31.5554C57.3309 31.9867 57.1046 32.2784 56.756 32.4306C56.4073 32.5765 55.8064 32.6495 54.9533 32.6495ZM54.9533 32.326C55.7026 32.326 56.2144 32.2753 56.4889 32.1738C56.7708 32.0723 56.9563 31.8249 57.0453 31.4317C57.1417 31.0385 57.1899 30.3281 57.1899 29.3006C57.1899 28.2731 57.1417 27.5628 57.0453 27.1695C56.9563 26.7763 56.7708 26.5289 56.4889 26.4275C56.2144 26.326 55.7026 26.2752 54.9533 26.2752C54.2115 26.2752 53.6996 26.326 53.4177 26.4275C53.1358 26.5289 52.9466 26.7763 52.8502 27.1695C52.7612 27.5628 52.7166 28.2731 52.7166 29.3006C52.7166 30.3281 52.7612 31.0385 52.8502 31.4317C52.9466 31.8249 53.1358 32.0723 53.4177 32.1738C53.6996 32.2753 54.2115 32.326 54.9533 32.326Z" fill="white"/>
<path d="M63.0774 32.5734V26.0279H63.478V32.2499H66.8052V32.5734H63.0774Z" fill="white"/>
<path d="M73.9155 32.6495C73.0624 32.6495 72.4615 32.5765 72.1128 32.4306C71.7642 32.2784 71.5379 31.9867 71.4341 31.5554C71.3302 31.1177 71.2783 30.3662 71.2783 29.3006C71.2783 28.2351 71.3302 27.4867 71.4341 27.0554C71.5379 26.6177 71.7642 26.326 72.1128 26.1801C72.4615 26.0279 73.0624 25.9518 73.9155 25.9518C74.7686 25.9518 75.3695 26.0279 75.7182 26.1801C76.0668 26.326 76.2931 26.6177 76.397 27.0554C76.5008 27.4867 76.5527 28.2351 76.5527 29.3006C76.5527 30.3662 76.5008 31.1177 76.397 31.5554C76.2931 31.9867 76.0668 32.2784 75.7182 32.4306C75.3695 32.5765 74.7686 32.6495 73.9155 32.6495ZM73.9155 32.326C74.6648 32.326 75.1766 32.2753 75.4511 32.1738C75.733 32.0723 75.9185 31.8249 76.0075 31.4317C76.1039 31.0385 76.1522 30.3281 76.1522 29.3006C76.1522 28.2731 76.1039 27.5628 76.0075 27.1695C75.9185 26.7763 75.733 26.5289 75.4511 26.4275C75.1766 26.326 74.6648 26.2752 73.9155 26.2752C73.1737 26.2752 72.6618 26.326 72.3799 26.4275C72.098 26.5289 71.9088 26.7763 71.8124 27.1695C71.7234 27.5628 71.6789 28.2731 71.6789 29.3006C71.6789 30.3281 71.7234 31.0385 71.8124 31.4317C71.9088 31.8249 72.098 32.0723 72.3799 32.1738C72.6618 32.2753 73.1737 32.326 73.9155 32.326Z" fill="white"/>
<path d="M84.141 29.5765V29.2531H86.3665V32.4877C86.0549 32.5385 85.71 32.5765 85.3316 32.6019C84.9533 32.6336 84.6195 32.6495 84.3301 32.6495C83.529 32.6495 82.9429 32.5734 82.572 32.4211C82.2085 32.2689 81.9563 31.9645 81.8153 31.5078C81.6744 31.0448 81.6039 30.3091 81.6039 29.3006C81.6039 28.2985 81.6744 27.5691 81.8153 27.1125C81.9563 26.6495 82.2085 26.3418 82.572 26.1896C82.9429 26.0311 83.529 25.9518 84.3301 25.9518C84.6491 25.9518 84.9978 25.9676 85.3761 25.9994C85.7619 26.0311 86.0846 26.0723 86.3442 26.123V26.4275C86.0549 26.3831 85.7471 26.3482 85.4207 26.3228C85.0942 26.2911 84.8272 26.2752 84.6195 26.2752C83.8034 26.2752 83.2322 26.326 82.9058 26.4275C82.5794 26.5289 82.3457 26.7858 82.2048 27.1981C82.0712 27.604 82.0045 28.3048 82.0045 29.3006C82.0045 30.2266 82.0527 30.8926 82.1491 31.2985C82.253 31.6981 82.4607 31.9708 82.7723 32.1167C83.0839 32.2562 83.5994 32.326 84.319 32.326C84.549 32.326 84.8272 32.3165 85.1536 32.2975C85.48 32.2721 85.7508 32.2435 85.9659 32.2118V29.5765H84.141Z" fill="white"/>
<path d="M93.0957 32.5734V29.9L90.592 26.0279H91.0482L93.2626 29.4909H93.3405L95.566 26.0279H96L93.4963 29.9V32.5734H93.0957Z" fill="white"/>
<path d="M5.97552 32.5734V26.3514H3.75V26.0279H8.60162V26.3514H6.37611V32.5734H5.97552Z" stroke="white" stroke-width="0.4" mask="url(#path-2-outside-1_6_1327)"/>
<path d="M13.5886 32.5734V26.0279H17.7058V26.3514H13.9892V29.1008H17.2495V29.4243H13.9892V32.2499H17.7058V32.5734H13.5886Z" stroke="white" stroke-width="0.4" mask="url(#path-2-outside-1_6_1327)"/>
<path d="M26.481 32.5543C26.0507 32.6177 25.5611 32.6495 25.0122 32.6495C24.2258 32.6495 23.662 32.5765 23.3208 32.4306C22.9795 32.2848 22.7458 31.9867 22.6197 31.5364C22.4936 31.0797 22.4306 30.3344 22.4306 29.3006C22.4306 28.2795 22.4936 27.5437 22.6197 27.0934C22.7458 26.6368 22.9795 26.3323 23.3208 26.1801C23.6694 26.0279 24.2332 25.9518 25.0122 25.9518C25.2495 25.9518 25.5018 25.9645 25.7688 25.9898C26.0433 26.0089 26.2659 26.0342 26.4365 26.0659V26.3704C26.0285 26.307 25.5834 26.2752 25.1012 26.2752C24.3668 26.2752 23.8512 26.3387 23.5544 26.4655C23.2651 26.586 23.0722 26.8461 22.9758 27.2457C22.8794 27.6389 22.8311 28.3239 22.8311 29.3006C22.8311 30.2774 22.8794 30.9655 22.9758 31.3651C23.0722 31.7583 23.2651 32.0184 23.5544 32.1452C23.8512 32.2657 24.3668 32.326 25.1012 32.326C25.5982 32.326 26.0581 32.2943 26.481 32.2309V32.5543Z" stroke="white" stroke-width="0.4" mask="url(#path-2-outside-1_6_1327)"/>
<path d="M36.008 32.5734V29.4243H31.9019V32.5734H31.5014V26.0279H31.9019V29.1008H36.008V26.0279H36.4086V32.5734H36.008Z" stroke="white" stroke-width="0.4" mask="url(#path-2-outside-1_6_1327)"/>
<path d="M46.4201 32.5734L42.3696 26.7414H42.3251V32.5734H41.9356V26.0279H42.3474L46.4089 31.8598H46.4534V26.0279H46.8429V32.5734H46.4201Z" stroke="white" stroke-width="0.4" mask="url(#path-2-outside-1_6_1327)"/>
<path d="M54.9533 32.6495C54.1002 32.6495 53.4993 32.5765 53.1506 32.4306C52.802 32.2784 52.5757 31.9867 52.4718 31.5554C52.368 31.1177 52.3161 30.3662 52.3161 29.3006C52.3161 28.2351 52.368 27.4867 52.4718 27.0554C52.5757 26.6177 52.802 26.326 53.1506 26.1801C53.4993 26.0279 54.1002 25.9518 54.9533 25.9518C55.8064 25.9518 56.4073 26.0279 56.756 26.1801C57.1046 26.326 57.3309 26.6177 57.4347 27.0554C57.5386 27.4867 57.5905 28.2351 57.5905 29.3006C57.5905 30.3662 57.5386 31.1177 57.4347 31.5554C57.3309 31.9867 57.1046 32.2784 56.756 32.4306C56.4073 32.5765 55.8064 32.6495 54.9533 32.6495ZM54.9533 32.326C55.7026 32.326 56.2144 32.2753 56.4889 32.1738C56.7708 32.0723 56.9563 31.8249 57.0453 31.4317C57.1417 31.0385 57.1899 30.3281 57.1899 29.3006C57.1899 28.2731 57.1417 27.5628 57.0453 27.1695C56.9563 26.7763 56.7708 26.5289 56.4889 26.4275C56.2144 26.326 55.7026 26.2752 54.9533 26.2752C54.2115 26.2752 53.6996 26.326 53.4177 26.4275C53.1358 26.5289 52.9466 26.7763 52.8502 27.1695C52.7612 27.5628 52.7166 28.2731 52.7166 29.3006C52.7166 30.3281 52.7612 31.0385 52.8502 31.4317C52.9466 31.8249 53.1358 32.0723 53.4177 32.1738C53.6996 32.2753 54.2115 32.326 54.9533 32.326Z" stroke="white" stroke-width="0.4" mask="url(#path-2-outside-1_6_1327)"/>
<path d="M63.0774 32.5734V26.0279H63.478V32.2499H66.8052V32.5734H63.0774Z" stroke="white" stroke-width="0.4" mask="url(#path-2-outside-1_6_1327)"/>
<path d="M73.9155 32.6495C73.0624 32.6495 72.4615 32.5765 72.1128 32.4306C71.7642 32.2784 71.5379 31.9867 71.4341 31.5554C71.3302 31.1177 71.2783 30.3662 71.2783 29.3006C71.2783 28.2351 71.3302 27.4867 71.4341 27.0554C71.5379 26.6177 71.7642 26.326 72.1128 26.1801C72.4615 26.0279 73.0624 25.9518 73.9155 25.9518C74.7686 25.9518 75.3695 26.0279 75.7182 26.1801C76.0668 26.326 76.2931 26.6177 76.397 27.0554C76.5008 27.4867 76.5527 28.2351 76.5527 29.3006C76.5527 30.3662 76.5008 31.1177 76.397 31.5554C76.2931 31.9867 76.0668 32.2784 75.7182 32.4306C75.3695 32.5765 74.7686 32.6495 73.9155 32.6495ZM73.9155 32.326C74.6648 32.326 75.1766 32.2753 75.4511 32.1738C75.733 32.0723 75.9185 31.8249 76.0075 31.4317C76.1039 31.0385 76.1522 30.3281 76.1522 29.3006C76.1522 28.2731 76.1039 27.5628 76.0075 27.1695C75.9185 26.7763 75.733 26.5289 75.4511 26.4275C75.1766 26.326 74.6648 26.2752 73.9155 26.2752C73.1737 26.2752 72.6618 26.326 72.3799 26.4275C72.098 26.5289 71.9088 26.7763 71.8124 27.1695C71.7234 27.5628 71.6789 28.2731 71.6789 29.3006C71.6789 30.3281 71.7234 31.0385 71.8124 31.4317C71.9088 31.8249 72.098 32.0723 72.3799 32.1738C72.6618 32.2753 73.1737 32.326 73.9155 32.326Z" stroke="white" stroke-width="0.4" mask="url(#path-2-outside-1_6_1327)"/>
<path d="M84.141 29.5765V29.2531H86.3665V32.4877C86.0549 32.5385 85.71 32.5765 85.3316 32.6019C84.9533 32.6336 84.6195 32.6495 84.3301 32.6495C83.529 32.6495 82.9429 32.5734 82.572 32.4211C82.2085 32.2689 81.9563 31.9645 81.8153 31.5078C81.6744 31.0448 81.6039 30.3091 81.6039 29.3006C81.6039 28.2985 81.6744 27.5691 81.8153 27.1125C81.9563 26.6495 82.2085 26.3418 82.572 26.1896C82.9429 26.0311 83.529 25.9518 84.3301 25.9518C84.6491 25.9518 84.9978 25.9676 85.3761 25.9994C85.7619 26.0311 86.0846 26.0723 86.3442 26.123V26.4275C86.0549 26.3831 85.7471 26.3482 85.4207 26.3228C85.0942 26.2911 84.8272 26.2752 84.6195 26.2752C83.8034 26.2752 83.2322 26.326 82.9058 26.4275C82.5794 26.5289 82.3457 26.7858 82.2048 27.1981C82.0712 27.604 82.0045 28.3048 82.0045 29.3006C82.0045 30.2266 82.0527 30.8926 82.1491 31.2985C82.253 31.6981 82.4607 31.9708 82.7723 32.1167C83.0839 32.2562 83.5994 32.326 84.319 32.326C84.549 32.326 84.8272 32.3165 85.1536 32.2975C85.48 32.2721 85.7508 32.2435 85.9659 32.2118V29.5765H84.141Z" stroke="white" stroke-width="0.4" mask="url(#path-2-outside-1_6_1327)"/>
<path d="M93.0957 32.5734V29.9L90.592 26.0279H91.0482L93.2626 29.4909H93.3405L95.566 26.0279H96L93.4963 29.9V32.5734H93.0957Z" stroke="white" stroke-width="0.4" mask="url(#path-2-outside-1_6_1327)"/>
</svg>
