<svg width="181" height="61" viewBox="0 0 181 61" fill="none" xmlns="http://www.w3.org/2000/svg">
<path fill-rule="evenodd" clip-rule="evenodd" d="M118.282 37.6744C112.63 37.6744 108.607 37.2106 106.212 36.2831C103.817 35.3198 102.285 33.6251 101.614 31.1991C100.992 28.7731 100.68 24.6525 100.68 18.8372C100.68 13.0219 100.992 8.9013 101.614 6.47529C102.285 4.04929 103.817 2.37249 106.212 1.4449C108.607 0.481634 112.63 0 118.282 0C123.933 0 127.932 0.481634 130.279 1.4449C132.674 2.37249 134.182 4.04929 134.805 6.47529C135.476 8.9013 135.811 13.0219 135.811 18.8372C135.811 24.6525 135.476 28.7731 134.805 31.1991C134.182 33.6251 132.674 35.3198 130.279 36.2831C127.932 37.2106 123.933 37.6744 118.282 37.6744ZM118.282 33.8749C122.305 33.8749 125.035 33.6251 126.471 33.1257C127.908 32.6262 128.866 31.4132 129.345 29.4867C129.824 27.5601 130.064 24.0103 130.064 18.8372C130.064 13.6641 129.824 10.1143 129.345 8.18777C128.866 6.26123 127.908 5.04823 126.471 4.54876C125.035 4.04929 122.305 3.79955 118.282 3.79955C114.258 3.79955 111.505 4.04929 110.02 4.54876C108.583 5.04823 107.625 6.26123 107.146 8.18777C106.667 10.1143 106.428 13.6641 106.428 18.8372C106.428 24.0103 106.667 27.5601 107.146 29.4867C107.625 31.4132 108.583 32.6262 110.02 33.1257C111.505 33.6251 114.258 33.8749 118.282 33.8749Z" fill="#4294E0"/>
<path d="M14.3713 2.20521C14.3713 1.22375 15.1755 0.428118 16.1677 0.428118H25.7926C29.5283 0.428118 32.3302 0.909752 34.198 1.87302C36.0659 2.83629 37.2872 4.13848 37.8619 5.7796C38.4367 7.38505 38.724 9.47212 38.724 12.0408C38.724 14.5739 38.4367 16.6431 37.8619 18.2486C37.2872 19.854 36.042 21.1562 34.1262 22.1551C32.2583 23.1541 29.4565 23.6536 25.7208 23.6536H15.0886C14.0965 23.6536 13.2922 24.4492 13.2922 25.4306V35.4692C13.2922 36.4507 12.4879 37.2463 11.4958 37.2463H9.34132C8.34919 37.2463 7.54491 36.4507 7.54491 35.4692V21.6806C7.54491 20.6991 8.34919 19.9035 9.34131 19.9035H13.2902L13.2922 19.9055L13.2943 19.9075H24.2121C26.8463 19.9075 28.786 19.6399 30.0312 19.1048C31.2765 18.5696 32.0667 17.7669 32.402 16.6966C32.7852 15.6263 32.9767 14.0744 32.9767 12.0408C32.9767 9.9716 32.8091 8.41966 32.4738 7.38504C32.1386 6.35042 31.3483 5.56554 30.1031 5.03039C28.8578 4.49524 26.9181 4.22767 24.2839 4.22767H20.4967C19.2 4.22767 17.4847 4.26502 16.1677 4.26502C15.1755 4.26502 14.3713 3.46939 14.3713 2.48793V2.20521Z" fill="#4294E0"/>
<path d="M49.9642 37.2463C48.9721 37.2463 48.1678 36.4507 48.1678 35.4692V2.20521C48.1678 1.22375 48.9721 0.428118 49.9642 0.428118H52.1187C53.1108 0.428118 53.9151 1.22375 53.9151 2.20522V35.4692C53.9151 36.4507 53.1108 37.2463 52.1187 37.2463H49.9642Z" fill="#4294E0"/>
<path d="M73.4488 4.3347C74.441 4.3347 75.2452 5.13034 75.2452 6.1118V35.4692C75.2452 36.4507 76.0495 37.2463 77.0416 37.2463H79.1961C80.1883 37.2463 80.9925 36.4507 80.9925 35.4692V6.1118C80.9925 5.13034 81.7968 4.3347 82.7889 4.3347H92.5586C93.5508 4.3347 94.355 3.53907 94.355 2.55761V2.20521C94.355 1.22375 93.5508 0.428118 92.5586 0.428118H63.6792C62.687 0.428118 61.8828 1.22375 61.8828 2.20521V2.55761C61.8828 3.53907 62.687 4.3347 63.6792 4.3347H73.4488Z" fill="#4294E0"/>
<path d="M152.462 8.99049C152.521 8.99049 152.578 9.0181 152.614 9.06518L173.857 36.5486C174.197 36.9884 174.725 37.2463 175.284 37.2463H178.204C179.196 37.2463 180 36.4507 180 35.4692V2.20521C180 1.22375 179.196 0.428118 178.204 0.428118H176.193C175.201 0.428118 174.396 1.22375 174.396 2.20521V27.9584C174.396 28.0636 174.31 28.1488 174.204 28.1488C174.144 28.1488 174.088 28.1212 174.051 28.0743L153.168 1.12407C152.828 0.685352 152.301 0.428118 151.742 0.428118H148.534C147.542 0.428118 146.737 1.22375 146.737 2.20522V35.4692C146.737 36.4507 147.542 37.2463 148.534 37.2463H150.473C151.465 37.2463 152.269 36.4507 152.269 35.4692V9.18074C152.269 9.07567 152.355 8.99049 152.462 8.99049Z" fill="#4294E0"/>
<path d="M7.18563 2.13252C7.18563 1.15105 7.98671 0.355419 8.97489 0.355419H11.1449C12.133 0.355419 12.9341 1.15105 12.9341 2.13252V2.48793C12.9341 3.4694 12.133 4.26503 11.1449 4.26503H8.97489C7.98671 4.26503 7.18563 3.4694 7.18563 2.48793V2.13252Z" fill="#4294E0"/>
<path d="M0 2.13252C0 1.15105 0.801081 0.355419 1.78926 0.355419H3.95924C4.94742 0.355419 5.7485 1.15105 5.7485 2.13252V2.48793C5.7485 3.4694 4.94742 4.26503 3.95924 4.26503H1.78926C0.801081 4.26503 0 3.4694 0 2.48793V2.13252Z" fill="#4294E0"/>
<mask id="path-2-outside-1_74_9144" maskUnits="userSpaceOnUse" x="6.03125" y="46.4419" width="175" height="14" fill="black">
<rect fill="white" x="6.03125" y="46.4419" width="175" height="14"/>
<path d="M11.2041 59.8573V48.1911H7.03125V47.5846H16.128V48.1911H11.9552V59.8573H11.2041Z"/>
<path d="M25.4786 59.8573V47.5846H33.1983V48.1911H26.2297V53.3464H32.3429V53.9529H26.2297V59.2508H33.1983V59.8573H25.4786Z"/>
<path d="M49.6519 59.8217C48.8451 59.9406 47.9271 60 46.8978 60C45.4234 60 44.3663 59.8633 43.7264 59.5898C43.0866 59.3162 42.6484 58.7573 42.412 57.913C42.1755 57.0567 42.0573 55.6594 42.0573 53.721C42.0573 51.8063 42.1755 50.4268 42.412 49.5825C42.6484 48.7263 43.0866 48.1554 43.7264 47.87C44.3802 47.5846 45.4373 47.4419 46.8978 47.4419C47.3429 47.4419 47.8158 47.4657 48.3165 47.5132C48.8312 47.5489 49.2485 47.5965 49.5684 47.656V48.2268C48.8034 48.1079 47.9688 48.0484 47.0647 48.0484C45.6877 48.0484 44.721 48.1673 44.1646 48.4052C43.6221 48.6311 43.2605 49.1187 43.0796 49.8679C42.8988 50.6052 42.8084 51.8896 42.8084 53.721C42.8084 55.5524 42.8988 56.8427 43.0796 57.5919C43.2605 58.3292 43.6221 58.8168 44.1646 59.0546C44.721 59.2806 45.6877 59.3935 47.0647 59.3935C47.9966 59.3935 48.859 59.3341 49.6519 59.2152V59.8217Z"/>
<path d="M67.515 59.8573V53.9529H59.8162V59.8573H59.065V47.5846H59.8162V53.3464H67.515V47.5846H68.2662V59.8573H67.515Z"/>
<path d="M87.0376 59.8573L79.443 48.9225H79.3596V59.8573H78.6293V47.5846H79.4013L87.0167 58.5195H87.1002V47.5846H87.8304V59.8573H87.0376Z"/>
<path d="M103.037 60C101.438 60 100.311 59.8633 99.6574 59.5898C99.0037 59.3043 98.5794 58.7573 98.3847 57.9486C98.19 57.1281 98.0926 55.7189 98.0926 53.721C98.0926 51.7231 98.19 50.3198 98.3847 49.5111C98.5794 48.6906 99.0037 48.1435 99.6574 47.87C100.311 47.5846 101.438 47.4419 103.037 47.4419C104.637 47.4419 105.764 47.5846 106.417 47.87C107.071 48.1435 107.495 48.6906 107.69 49.5111C107.885 50.3198 107.982 51.7231 107.982 53.721C107.982 55.7189 107.885 57.1281 107.69 57.9486C107.495 58.7573 107.071 59.3043 106.417 59.5898C105.764 59.8633 104.637 60 103.037 60ZM103.037 59.3935C104.442 59.3935 105.402 59.2984 105.917 59.1081C106.445 58.9179 106.793 58.4541 106.96 57.7167C107.141 56.9794 107.231 55.6475 107.231 53.721C107.231 51.7944 107.141 50.4625 106.96 49.7252C106.793 48.9879 106.445 48.5241 105.917 48.3338C105.402 48.1435 104.442 48.0484 103.037 48.0484C101.646 48.0484 100.687 48.1435 100.158 48.3338C99.6296 48.5241 99.2749 48.9879 99.0941 49.7252C98.9272 50.4625 98.8437 51.7944 98.8437 53.721C98.8437 55.6475 98.9272 56.9794 99.0941 57.7167C99.2749 58.4541 99.6296 58.9179 100.158 59.1081C100.687 59.2984 101.646 59.3935 103.037 59.3935Z"/>
<path d="M118.27 59.8573V47.5846H119.021V59.2508H125.26V59.8573H118.27Z"/>
<path d="M138.592 60C136.992 60 135.865 59.8633 135.212 59.5898C134.558 59.3043 134.134 58.7573 133.939 57.9486C133.744 57.1281 133.647 55.7189 133.647 53.721C133.647 51.7231 133.744 50.3198 133.939 49.5111C134.134 48.6906 134.558 48.1435 135.212 47.87C135.865 47.5846 136.992 47.4419 138.592 47.4419C140.191 47.4419 141.318 47.5846 141.972 47.87C142.625 48.1435 143.05 48.6906 143.244 49.5111C143.439 50.3198 143.536 51.7231 143.536 53.721C143.536 55.7189 143.439 57.1281 143.244 57.9486C143.05 58.7573 142.625 59.3043 141.972 59.5898C141.318 59.8633 140.191 60 138.592 60ZM138.592 59.3935C139.996 59.3935 140.956 59.2984 141.471 59.1081C141.999 58.9179 142.347 58.4541 142.514 57.7167C142.695 56.9794 142.785 55.6475 142.785 53.721C142.785 51.7944 142.695 50.4625 142.514 49.7252C142.347 48.9879 141.999 48.5241 141.471 48.3338C140.956 48.1435 139.996 48.0484 138.592 48.0484C137.201 48.0484 136.241 48.1435 135.712 48.3338C135.184 48.5241 134.829 48.9879 134.648 49.7252C134.481 50.4625 134.398 51.7944 134.398 53.721C134.398 55.6475 134.481 56.9794 134.648 57.7167C134.829 58.4541 135.184 58.9179 135.712 59.1081C136.241 59.2984 137.201 59.3935 138.592 59.3935Z"/>
<path d="M157.764 54.2383V53.6318H161.937V59.6968C161.353 59.7919 160.706 59.8633 159.997 59.9108C159.287 59.9703 158.661 60 158.119 60C156.617 60 155.518 59.8573 154.822 59.5719C154.141 59.2865 153.668 58.7157 153.404 57.8594C153.139 56.9913 153.007 55.6118 153.007 53.721C153.007 51.842 153.139 50.4744 153.404 49.6182C153.668 48.75 154.141 48.1733 154.822 47.8879C155.518 47.5905 156.617 47.4419 158.119 47.4419C158.717 47.4419 159.371 47.4716 160.08 47.5311C160.804 47.5905 161.409 47.6678 161.895 47.763V48.3338C161.353 48.2506 160.776 48.1852 160.164 48.1376C159.552 48.0781 159.051 48.0484 158.661 48.0484C157.131 48.0484 156.06 48.1435 155.448 48.3338C154.836 48.5241 154.398 49.0057 154.134 49.7787C153.884 50.5398 153.758 51.8539 153.758 53.721C153.758 55.4572 153.849 56.7059 154.03 57.467C154.224 58.2162 154.614 58.7276 155.198 59.0011C155.782 59.2627 156.749 59.3935 158.098 59.3935C158.529 59.3935 159.051 59.3757 159.663 59.34C160.275 59.2925 160.783 59.2389 161.186 59.1795V54.2383H157.764Z"/>
<path d="M174.554 59.8573V54.8448L169.86 47.5846H170.715L174.867 54.0777H175.013L179.186 47.5846H180L175.306 54.8448V59.8573H174.554Z"/>
</mask>
<path d="M11.2041 59.8573V48.1911H7.03125V47.5846H16.128V48.1911H11.9552V59.8573H11.2041Z" fill="#A7A7A7"/>
<path d="M25.4786 59.8573V47.5846H33.1983V48.1911H26.2297V53.3464H32.3429V53.9529H26.2297V59.2508H33.1983V59.8573H25.4786Z" fill="#A7A7A7"/>
<path d="M49.6519 59.8217C48.8451 59.9406 47.9271 60 46.8978 60C45.4234 60 44.3663 59.8633 43.7264 59.5898C43.0866 59.3162 42.6484 58.7573 42.412 57.913C42.1755 57.0567 42.0573 55.6594 42.0573 53.721C42.0573 51.8063 42.1755 50.4268 42.412 49.5825C42.6484 48.7263 43.0866 48.1554 43.7264 47.87C44.3802 47.5846 45.4373 47.4419 46.8978 47.4419C47.3429 47.4419 47.8158 47.4657 48.3165 47.5132C48.8312 47.5489 49.2485 47.5965 49.5684 47.656V48.2268C48.8034 48.1079 47.9688 48.0484 47.0647 48.0484C45.6877 48.0484 44.721 48.1673 44.1646 48.4052C43.6221 48.6311 43.2605 49.1187 43.0796 49.8679C42.8988 50.6052 42.8084 51.8896 42.8084 53.721C42.8084 55.5524 42.8988 56.8427 43.0796 57.5919C43.2605 58.3292 43.6221 58.8168 44.1646 59.0546C44.721 59.2806 45.6877 59.3935 47.0647 59.3935C47.9966 59.3935 48.859 59.3341 49.6519 59.2152V59.8217Z" fill="#A7A7A7"/>
<path d="M67.515 59.8573V53.9529H59.8162V59.8573H59.065V47.5846H59.8162V53.3464H67.515V47.5846H68.2662V59.8573H67.515Z" fill="#A7A7A7"/>
<path d="M87.0376 59.8573L79.443 48.9225H79.3596V59.8573H78.6293V47.5846H79.4013L87.0167 58.5195H87.1002V47.5846H87.8304V59.8573H87.0376Z" fill="#A7A7A7"/>
<path d="M103.037 60C101.438 60 100.311 59.8633 99.6574 59.5898C99.0037 59.3043 98.5794 58.7573 98.3847 57.9486C98.19 57.1281 98.0926 55.7189 98.0926 53.721C98.0926 51.7231 98.19 50.3198 98.3847 49.5111C98.5794 48.6906 99.0037 48.1435 99.6574 47.87C100.311 47.5846 101.438 47.4419 103.037 47.4419C104.637 47.4419 105.764 47.5846 106.417 47.87C107.071 48.1435 107.495 48.6906 107.69 49.5111C107.885 50.3198 107.982 51.7231 107.982 53.721C107.982 55.7189 107.885 57.1281 107.69 57.9486C107.495 58.7573 107.071 59.3043 106.417 59.5898C105.764 59.8633 104.637 60 103.037 60ZM103.037 59.3935C104.442 59.3935 105.402 59.2984 105.917 59.1081C106.445 58.9179 106.793 58.4541 106.96 57.7167C107.141 56.9794 107.231 55.6475 107.231 53.721C107.231 51.7944 107.141 50.4625 106.96 49.7252C106.793 48.9879 106.445 48.5241 105.917 48.3338C105.402 48.1435 104.442 48.0484 103.037 48.0484C101.646 48.0484 100.687 48.1435 100.158 48.3338C99.6296 48.5241 99.2749 48.9879 99.0941 49.7252C98.9272 50.4625 98.8437 51.7944 98.8437 53.721C98.8437 55.6475 98.9272 56.9794 99.0941 57.7167C99.2749 58.4541 99.6296 58.9179 100.158 59.1081C100.687 59.2984 101.646 59.3935 103.037 59.3935Z" fill="#A7A7A7"/>
<path d="M118.27 59.8573V47.5846H119.021V59.2508H125.26V59.8573H118.27Z" fill="#A7A7A7"/>
<path d="M138.592 60C136.992 60 135.865 59.8633 135.212 59.5898C134.558 59.3043 134.134 58.7573 133.939 57.9486C133.744 57.1281 133.647 55.7189 133.647 53.721C133.647 51.7231 133.744 50.3198 133.939 49.5111C134.134 48.6906 134.558 48.1435 135.212 47.87C135.865 47.5846 136.992 47.4419 138.592 47.4419C140.191 47.4419 141.318 47.5846 141.972 47.87C142.625 48.1435 143.05 48.6906 143.244 49.5111C143.439 50.3198 143.536 51.7231 143.536 53.721C143.536 55.7189 143.439 57.1281 143.244 57.9486C143.05 58.7573 142.625 59.3043 141.972 59.5898C141.318 59.8633 140.191 60 138.592 60ZM138.592 59.3935C139.996 59.3935 140.956 59.2984 141.471 59.1081C141.999 58.9179 142.347 58.4541 142.514 57.7167C142.695 56.9794 142.785 55.6475 142.785 53.721C142.785 51.7944 142.695 50.4625 142.514 49.7252C142.347 48.9879 141.999 48.5241 141.471 48.3338C140.956 48.1435 139.996 48.0484 138.592 48.0484C137.201 48.0484 136.241 48.1435 135.712 48.3338C135.184 48.5241 134.829 48.9879 134.648 49.7252C134.481 50.4625 134.398 51.7944 134.398 53.721C134.398 55.6475 134.481 56.9794 134.648 57.7167C134.829 58.4541 135.184 58.9179 135.712 59.1081C136.241 59.2984 137.201 59.3935 138.592 59.3935Z" fill="#A7A7A7"/>
<path d="M157.764 54.2383V53.6318H161.937V59.6968C161.353 59.7919 160.706 59.8633 159.997 59.9108C159.287 59.9703 158.661 60 158.119 60C156.617 60 155.518 59.8573 154.822 59.5719C154.141 59.2865 153.668 58.7157 153.404 57.8594C153.139 56.9913 153.007 55.6118 153.007 53.721C153.007 51.842 153.139 50.4744 153.404 49.6182C153.668 48.75 154.141 48.1733 154.822 47.8879C155.518 47.5905 156.617 47.4419 158.119 47.4419C158.717 47.4419 159.371 47.4716 160.08 47.5311C160.804 47.5905 161.409 47.6678 161.895 47.763V48.3338C161.353 48.2506 160.776 48.1852 160.164 48.1376C159.552 48.0781 159.051 48.0484 158.661 48.0484C157.131 48.0484 156.06 48.1435 155.448 48.3338C154.836 48.5241 154.398 49.0057 154.134 49.7787C153.884 50.5398 153.758 51.8539 153.758 53.721C153.758 55.4572 153.849 56.7059 154.03 57.467C154.224 58.2162 154.614 58.7276 155.198 59.0011C155.782 59.2627 156.749 59.3935 158.098 59.3935C158.529 59.3935 159.051 59.3757 159.663 59.34C160.275 59.2925 160.783 59.2389 161.186 59.1795V54.2383H157.764Z" fill="#A7A7A7"/>
<path d="M174.554 59.8573V54.8448L169.86 47.5846H170.715L174.867 54.0777H175.013L179.186 47.5846H180L175.306 54.8448V59.8573H174.554Z" fill="#A7A7A7"/>
<path d="M11.2041 59.8573V48.1911H7.03125V47.5846H16.128V48.1911H11.9552V59.8573H11.2041Z" stroke="#A7A7A7" stroke-width="0.6" mask="url(#path-2-outside-1_74_9144)"/>
<path d="M25.4786 59.8573V47.5846H33.1983V48.1911H26.2297V53.3464H32.3429V53.9529H26.2297V59.2508H33.1983V59.8573H25.4786Z" stroke="#A7A7A7" stroke-width="0.6" mask="url(#path-2-outside-1_74_9144)"/>
<path d="M49.6519 59.8217C48.8451 59.9406 47.9271 60 46.8978 60C45.4234 60 44.3663 59.8633 43.7264 59.5898C43.0866 59.3162 42.6484 58.7573 42.412 57.913C42.1755 57.0567 42.0573 55.6594 42.0573 53.721C42.0573 51.8063 42.1755 50.4268 42.412 49.5825C42.6484 48.7263 43.0866 48.1554 43.7264 47.87C44.3802 47.5846 45.4373 47.4419 46.8978 47.4419C47.3429 47.4419 47.8158 47.4657 48.3165 47.5132C48.8312 47.5489 49.2485 47.5965 49.5684 47.656V48.2268C48.8034 48.1079 47.9688 48.0484 47.0647 48.0484C45.6877 48.0484 44.721 48.1673 44.1646 48.4052C43.6221 48.6311 43.2605 49.1187 43.0796 49.8679C42.8988 50.6052 42.8084 51.8896 42.8084 53.721C42.8084 55.5524 42.8988 56.8427 43.0796 57.5919C43.2605 58.3292 43.6221 58.8168 44.1646 59.0546C44.721 59.2806 45.6877 59.3935 47.0647 59.3935C47.9966 59.3935 48.859 59.3341 49.6519 59.2152V59.8217Z" stroke="#A7A7A7" stroke-width="0.6" mask="url(#path-2-outside-1_74_9144)"/>
<path d="M67.515 59.8573V53.9529H59.8162V59.8573H59.065V47.5846H59.8162V53.3464H67.515V47.5846H68.2662V59.8573H67.515Z" stroke="#A7A7A7" stroke-width="0.6" mask="url(#path-2-outside-1_74_9144)"/>
<path d="M87.0376 59.8573L79.443 48.9225H79.3596V59.8573H78.6293V47.5846H79.4013L87.0167 58.5195H87.1002V47.5846H87.8304V59.8573H87.0376Z" stroke="#A7A7A7" stroke-width="0.6" mask="url(#path-2-outside-1_74_9144)"/>
<path d="M103.037 60C101.438 60 100.311 59.8633 99.6574 59.5898C99.0037 59.3043 98.5794 58.7573 98.3847 57.9486C98.19 57.1281 98.0926 55.7189 98.0926 53.721C98.0926 51.7231 98.19 50.3198 98.3847 49.5111C98.5794 48.6906 99.0037 48.1435 99.6574 47.87C100.311 47.5846 101.438 47.4419 103.037 47.4419C104.637 47.4419 105.764 47.5846 106.417 47.87C107.071 48.1435 107.495 48.6906 107.69 49.5111C107.885 50.3198 107.982 51.7231 107.982 53.721C107.982 55.7189 107.885 57.1281 107.69 57.9486C107.495 58.7573 107.071 59.3043 106.417 59.5898C105.764 59.8633 104.637 60 103.037 60ZM103.037 59.3935C104.442 59.3935 105.402 59.2984 105.917 59.1081C106.445 58.9179 106.793 58.4541 106.96 57.7167C107.141 56.9794 107.231 55.6475 107.231 53.721C107.231 51.7944 107.141 50.4625 106.96 49.7252C106.793 48.9879 106.445 48.5241 105.917 48.3338C105.402 48.1435 104.442 48.0484 103.037 48.0484C101.646 48.0484 100.687 48.1435 100.158 48.3338C99.6296 48.5241 99.2749 48.9879 99.0941 49.7252C98.9272 50.4625 98.8437 51.7944 98.8437 53.721C98.8437 55.6475 98.9272 56.9794 99.0941 57.7167C99.2749 58.4541 99.6296 58.9179 100.158 59.1081C100.687 59.2984 101.646 59.3935 103.037 59.3935Z" stroke="#A7A7A7" stroke-width="0.6" mask="url(#path-2-outside-1_74_9144)"/>
<path d="M118.27 59.8573V47.5846H119.021V59.2508H125.26V59.8573H118.27Z" stroke="#A7A7A7" stroke-width="0.6" mask="url(#path-2-outside-1_74_9144)"/>
<path d="M138.592 60C136.992 60 135.865 59.8633 135.212 59.5898C134.558 59.3043 134.134 58.7573 133.939 57.9486C133.744 57.1281 133.647 55.7189 133.647 53.721C133.647 51.7231 133.744 50.3198 133.939 49.5111C134.134 48.6906 134.558 48.1435 135.212 47.87C135.865 47.5846 136.992 47.4419 138.592 47.4419C140.191 47.4419 141.318 47.5846 141.972 47.87C142.625 48.1435 143.05 48.6906 143.244 49.5111C143.439 50.3198 143.536 51.7231 143.536 53.721C143.536 55.7189 143.439 57.1281 143.244 57.9486C143.05 58.7573 142.625 59.3043 141.972 59.5898C141.318 59.8633 140.191 60 138.592 60ZM138.592 59.3935C139.996 59.3935 140.956 59.2984 141.471 59.1081C141.999 58.9179 142.347 58.4541 142.514 57.7167C142.695 56.9794 142.785 55.6475 142.785 53.721C142.785 51.7944 142.695 50.4625 142.514 49.7252C142.347 48.9879 141.999 48.5241 141.471 48.3338C140.956 48.1435 139.996 48.0484 138.592 48.0484C137.201 48.0484 136.241 48.1435 135.712 48.3338C135.184 48.5241 134.829 48.9879 134.648 49.7252C134.481 50.4625 134.398 51.7944 134.398 53.721C134.398 55.6475 134.481 56.9794 134.648 57.7167C134.829 58.4541 135.184 58.9179 135.712 59.1081C136.241 59.2984 137.201 59.3935 138.592 59.3935Z" stroke="#A7A7A7" stroke-width="0.6" mask="url(#path-2-outside-1_74_9144)"/>
<path d="M157.764 54.2383V53.6318H161.937V59.6968C161.353 59.7919 160.706 59.8633 159.997 59.9108C159.287 59.9703 158.661 60 158.119 60C156.617 60 155.518 59.8573 154.822 59.5719C154.141 59.2865 153.668 58.7157 153.404 57.8594C153.139 56.9913 153.007 55.6118 153.007 53.721C153.007 51.842 153.139 50.4744 153.404 49.6182C153.668 48.75 154.141 48.1733 154.822 47.8879C155.518 47.5905 156.617 47.4419 158.119 47.4419C158.717 47.4419 159.371 47.4716 160.08 47.5311C160.804 47.5905 161.409 47.6678 161.895 47.763V48.3338C161.353 48.2506 160.776 48.1852 160.164 48.1376C159.552 48.0781 159.051 48.0484 158.661 48.0484C157.131 48.0484 156.06 48.1435 155.448 48.3338C154.836 48.5241 154.398 49.0057 154.134 49.7787C153.884 50.5398 153.758 51.8539 153.758 53.721C153.758 55.4572 153.849 56.7059 154.03 57.467C154.224 58.2162 154.614 58.7276 155.198 59.0011C155.782 59.2627 156.749 59.3935 158.098 59.3935C158.529 59.3935 159.051 59.3757 159.663 59.34C160.275 59.2925 160.783 59.2389 161.186 59.1795V54.2383H157.764Z" stroke="#A7A7A7" stroke-width="0.6" mask="url(#path-2-outside-1_74_9144)"/>
<path d="M174.554 59.8573V54.8448L169.86 47.5846H170.715L174.867 54.0777H175.013L179.186 47.5846H180L175.306 54.8448V59.8573H174.554Z" stroke="#A7A7A7" stroke-width="0.6" mask="url(#path-2-outside-1_74_9144)"/>
</svg>
